<svg width="107" height="106" viewBox="0 0 107 106" fill="none" xmlns="http://www.w3.org/2000/svg">
<path d="M103 49.5C103 76.24 80.2135 98 52 98C23.7865 98 1 76.24 1 49.5C1 22.76 23.7865 1 52 1C80.2135 1 103 22.76 103 49.5Z" stroke="white" stroke-width="2"/>
<path d="M35.1852 36.7778L34.6739 36.5039C31.5675 34.8397 28.2866 33.5241 24.8911 32.5809L21 31.5L20.814 31.4203C20.4439 31.2617 20.1649 31.7766 20.5 32L22.1382 32.8191C23.7095 33.6048 25.207 34.5303 26.6125 35.5844L28.1294 36.7221C29.6991 37.8993 31.064 39.3272 32.1693 40.9483L32.4194 41.3152C35.8709 46.3773 36.3185 52.9619 33.6417 58.473C31.0856 63.7355 25.9541 67.3546 20.1328 67.9367C16.478 68.3022 12.8038 67.4634 9.66966 65.5481L7.00718 63.9211C6.00749 63.3101 5.09993 62.5599 4.31184 61.693C3.00138 60.2515 2.05095 58.5201 1.53836 56.6406L3.19731 62.7235C4.06365 65.9001 5.24165 68.9833 6.71414 71.9283L8 74.5L9.23088 76.2516C16.7732 86.9849 28.2315 94.3241 41.1352 96.6867L44.7337 97.3456C71.0536 102.165 96.4316 85.1716 102 59C101.675 59.9741 101.046 60.8179 100.205 61.4067L99.1772 62.1259C97.4528 63.333 95.3449 63.8641 93.2544 63.6182L92.4912 63.5284C89.6222 63.1908 87.0153 61.6968 85.2739 59.3919L74.3511 44.9353C72.1275 41.9922 69.5123 39.3665 66.5782 37.131L66.2908 36.9121C62.464 33.9964 58.1259 31.8217 53.5 30.5L51.2925 29.8378C50.8813 29.7144 50.6318 30.2791 51 30.5L54.8358 32.9659C56.933 34.314 58.8121 35.9745 60.4082 37.8898L60.5425 38.051C62.1698 40.0038 63.4655 42.2104 64.378 44.5829L65.0073 46.2189C65.3343 47.0691 65.5459 47.9593 65.6366 48.8657L65.7588 50.0876C65.9147 51.6474 65.5247 53.213 64.6552 54.5173L64.5551 54.6673C63.5643 56.1535 61.9945 57.1547 60.2291 57.4263C57.93 57.78 55.6211 56.8507 54.2081 55.0029L50 49.5C46.0478 44.2304 40.9915 39.8883 35.1852 36.7778Z" fill="white" stroke="white" stroke-width="2"/>
<path d="M3 60L3.51804 60.6907C4.17034 61.5605 4.92434 62.349 5.76398 63.0396L5.97514 63.2133C6.58993 63.719 7.25734 64.157 7.96585 64.5199L8.40158 64.743C10.0033 65.5634 11.8065 65.9079 13.5979 65.7359L14.2918 65.6692C17.0759 65.4019 19.5289 63.7268 20.7913 61.2311V61.2311C22.2775 58.2928 21.8515 54.7492 19.7112 52.247L19.5 52L17.5959 50.0959C17.5321 50.0321 17.4625 49.9744 17.3881 49.9235L13.8914 47.5327C13.7724 47.4514 13.83 47.2651 13.9741 47.2651V47.2651C13.9912 47.2651 14.0082 47.2681 14.0243 47.274L18.7636 49L23.3218 50.9844C25.3607 51.872 27.2086 53.1459 28.7634 54.7356L29.5725 55.5629C29.8568 55.8535 30.1105 56.1725 30.3298 56.5148L30.78 57.2176C32.0669 59.2263 31.739 61.867 30 63.5V63.5L29.4727 63.9687C26.8995 66.256 23.6308 67.61 20.1939 67.8121V67.8121C18.0874 67.936 15.9779 67.6234 13.9978 66.8939L10.4584 65.59C8.50429 64.87 6.70635 63.7819 5.16206 62.3847V62.3847C4.38914 61.6854 3.68514 60.9135 3.05974 60.0797L3 60Z" stroke="white" stroke-width="2"/>
<path d="M90 44.2644V44.2644C89.9136 44.2187 89.8308 44.3308 89.8999 44.3999L90 44.5L91 45.5V45.5C92.3128 46.8128 93.2793 48.4309 93.8128 50.2092L93.9969 50.8229C94.3293 51.931 94.4498 53.092 94.352 54.2448L94.3151 54.6788C94.2689 55.2238 94.1486 55.7599 93.9576 56.2723L93.7552 56.8153C93.587 57.2665 93.3238 57.6762 92.9833 58.0167V58.0167C92.3537 58.6463 91.4998 59 90.6094 59H89.6873C89.2308 59 88.7761 58.944 88.3332 58.8333L87 58.5V58.5C85.3548 57.8419 83.8803 56.8192 82.6875 55.5088L81.7692 54.5L80.5 53L84.8005 58.0824C85.5962 59.0228 86.5201 59.8467 87.5451 60.5301L88.7065 61.3043C89.8811 62.0875 91.2424 62.545 92.6516 62.6304L94.552 62.7456C99.9764 63.0743 103.649 57.3128 101.06 52.5345V52.5345C100.689 51.8498 100.206 51.2325 99.6295 50.7086L97.6678 48.9253C95.9005 47.3187 93.889 46.0032 91.7086 45.0283L90 44.2644Z" stroke="white" stroke-width="2"/>
<path d="M53.6608 53.9405L53 53.5L56.5986 56.3789C57.5058 57.1046 58.6329 57.5 59.7946 57.5C60.9016 57.5 61.9787 57.141 62.8643 56.4768L63.3499 56.1126C63.4498 56.0376 63.5443 55.9557 63.6327 55.8673C64.664 54.836 64.664 53.164 63.6327 52.1327L63 51.5L59.5 48.5L56.9098 46.6498C56.3042 46.2173 55.6656 45.8328 55 45.5L54.6325 45.3162C54.516 45.258 54.408 45.408 54.5 45.5L55.3339 46.3339C55.7762 46.7762 56.1604 47.2729 56.4774 47.8121L56.7413 48.2609C57.4038 49.3879 57.6708 50.7039 57.5 52L57.3737 52.5051C57.1455 53.418 56.4117 54.1177 55.489 54.3022C54.8558 54.4288 54.1981 54.2988 53.6608 53.9405Z" stroke="white" stroke-width="2"/>
</svg>
