<svg width="49" height="43" viewBox="0 0 49 43" fill="none" xmlns="http://www.w3.org/2000/svg">
<path d="M20.1078 1.89589L20.0254 0.39815L20.1078 1.89589ZM21.6252 1.8125L21.7075 3.31024L21.6252 1.8125ZM38.7608 27.1327L37.401 26.4995L38.7608 27.1327ZM33.0111 36.9677C33.2949 37.746 34.1559 38.1469 34.9342 37.8632L47.6175 33.239C48.3959 32.9553 48.7968 32.0943 48.513 31.316C48.2292 30.5376 47.3683 30.1367 46.5899 30.4205L35.3159 34.5309L31.2055 23.2568C30.9217 22.4785 30.0608 22.0775 29.2824 22.3613C28.5041 22.6451 28.1032 23.506 28.387 24.2844L33.0111 36.9677ZM7.61265 34.6419L6.50035 35.6483L6.50035 35.6483L7.61265 34.6419ZM7.46283 34.4763L6.29571 35.4186L6.32221 35.4514L6.35053 35.4827L7.46283 34.4763ZM6.27612 33.0064L5.109 33.9486L6.27612 33.0064ZM35.5559 7.36566L34.4659 8.39605L34.4659 8.39605L35.5559 7.36566ZM2.63874 16.2127L1.18634 15.8378L1.18634 15.8378L2.63874 16.2127ZM20.1901 3.39363L21.7075 3.31024L21.5429 0.314756L20.0254 0.39815L20.1901 3.39363ZM37.401 26.4995L33.0606 35.8207L35.7802 37.0871L40.1206 27.7659L37.401 26.4995ZM8.72496 33.6355L8.57513 33.4699L6.35053 35.4827L6.50035 35.6483L8.72496 33.6355ZM8.62995 33.5341L7.44325 32.0641L5.109 33.9486L6.29571 35.4186L8.62995 33.5341ZM29.2822 38.2898C22.1339 41.2286 13.9103 39.3667 8.72496 33.6355L6.50035 35.6483C12.5346 42.3177 22.1044 44.4843 30.4229 41.0645L29.2822 38.2898ZM34.4659 8.39605C39.0622 13.2586 40.2255 20.4338 37.401 26.4995L40.1206 27.7659C43.4642 20.5854 42.0871 12.0915 36.646 6.33527L34.4659 8.39605ZM21.7075 3.31024C26.5012 3.04678 31.1679 4.90704 34.4659 8.39605L36.646 6.33527C32.742 2.20502 27.2176 0.0028854 21.5429 0.314756L21.7075 3.31024ZM1.18634 15.8378C-0.444279 22.1554 1.01048 28.872 5.109 33.9486L7.44325 32.0641C3.94086 27.7259 2.6977 21.9862 4.09114 16.5876L1.18634 15.8378ZM4.09114 16.5876C6.01029 9.15218 12.5226 3.81502 20.1901 3.39363L20.0254 0.39815C11.0528 0.891259 3.43214 7.13685 1.18634 15.8378L4.09114 16.5876Z" fill="#37BFB3"/>
</svg>
